<?xml version="1.0" encoding="iso-8859-1"?>
<!-- Uploaded to: SVG Repo, www.svgrepo.com, Generator: SVG Repo Mixer Tools -->
<!DOCTYPE svg PUBLIC "-//W3C//DTD SVG 1.1//EN" "http://www.w3.org/Graphics/SVG/1.1/DTD/svg11.dtd">
<svg fill="#000000" height="800px" width="800px" version="1.1" id="Capa_1" xmlns="http://www.w3.org/2000/svg" xmlns:xlink="http://www.w3.org/1999/xlink" 
	 viewBox="0 0 420.27 420.27" xml:space="preserve">
<path d="M404.694,83.822c-1.883-3.058-5.887-4.011-8.942-2.129L372.748,95.85c-17.339,10.669-32.301,25.376-43.268,42.53
	c-7.925,12.396-21.669,20.014-36.015,20.014c-0.246,0-0.494-0.002-0.74-0.007c-3.521-0.065-7.057-0.448-10.509-1.14l-102.946-20.638
	c-2.819-0.565-5.22-2.214-6.759-4.643c-1.539-2.429-2.005-5.304-1.313-8.095c1.297-5.227,6.478-8.647,11.794-7.781l64.887,10.544
	c6.058,0.982,12.312-0.608,17.161-4.369c4.849-3.761,7.947-9.422,8.501-15.533c1.04-11.47-7.04-21.961-18.396-23.884l-84.674-14.343
	c-1.451-0.245-2.941,0.008-4.23,0.72L81.405,116.13c-6.312,3.491-14.298,1.461-18.18-4.622c-1.974-3.095-2.621-6.772-1.821-10.354
	c0.801-3.583,2.95-6.635,6.054-8.597l97.915-61.879c8.52-5.383,18.699-7.52,28.663-6.014l124.886,18.867
	c1.586,0.24,3.202-0.115,4.542-0.997l46.533-30.603c3-1.972,3.832-6.003,1.859-9.002c-1.974-3-6.004-3.831-9.002-1.859
	l-44.453,29.235L195.978,11.809c-13.053-1.971-26.389,0.826-37.55,7.879L60.513,81.567c-6.047,3.821-10.236,9.771-11.795,16.752
	c-1.56,6.982-0.299,14.149,3.549,20.181c1.803,2.825,4.064,5.196,6.623,7.086c-11.523,13.044-21.027,27.677-28.299,43.619
	c-15.498,34.015-19.908,72.856-12.419,109.367c4.793,23.403,14.154,45.307,27.825,65.103c10.766,15.587,23.793,29.233,38.717,40.555
	c30.303,23.008,68.047,35.806,106.277,36.036c0.392,0.002,0.78,0.004,1.171,0.004c36.032-0.001,70.784-10.855,100.569-31.427
	c21.688-14.978,39.345-34.027,52.475-56.617c33.143-56.925,32.164-126.986-2.533-182.806c-0.765-1.249-1.564-2.506-2.404-3.789
	c0.054-0.083,0.111-0.165,0.165-0.249c9.918-15.513,23.447-28.813,39.127-38.461l23.005-14.157
	C405.622,90.883,406.575,86.879,404.694,83.822z M176.716,149.355l49.721,9.968c-6.369,3.252-12.534,6.933-18.451,11.021
	c-10.265,7.096-19.645,15.312-27.948,24.457c-14.484-5.987-29.362-11.113-44.399-15.29c8.573-11.614,19.928-24.77,30.484-35.281
	C169.115,146.79,172.729,148.556,176.716,149.355z M127.839,190.87c14.699,3.891,29.271,8.716,43.473,14.407
	c-42.171,55.213-44.351,131.981-4.458,189.747c2.703,3.917,5.594,7.719,8.642,11.394c-29.201-2.981-57.43-13.768-81.003-31.116
	C80.89,312.085,92.992,245.275,127.839,190.87z M260.595,105.559c-0.232,2.568-1.483,4.853-3.521,6.434
	c-2.038,1.58-4.564,2.223-7.107,1.809l-33.771-5.488c9.582-5.293,19.486-9.932,29.611-13.863l7.169,1.214
	C257.679,96.463,261.025,100.808,260.595,105.559z M170.543,81.703l51.833,8.78c-8.972,4.338-17.716,9.215-26.167,14.584
	l-11.131-1.809c-11.951-1.938-23.582,5.739-26.496,17.482c-1.033,4.16-0.912,8.402,0.292,12.381
	c-12.946,12.608-26.977,28.992-36.744,42.895c-9.697-2.315-19.511-4.261-29.308-5.823c4.486-16.396,7.359-33.253,8.563-50.254
	L170.543,81.703z M87.641,127.535c-1.459,13.808-4.072,27.472-7.818,40.81c-10.933-1.358-21.977-2.249-32.995-2.676
	c6.766-12.741,15.143-24.476,25.006-35.008C77.136,131.257,82.654,130.278,87.641,127.535z M40.719,178.483
	c11.735,0.279,23.529,1.114,35.204,2.492c-10.223,30.069-26.336,58.083-47.124,82.019C25.341,234.462,29.462,205.019,40.719,178.483
	z M56.694,336.287c-12.032-17.423-20.454-36.604-25.075-57.059c25.859-27.427,45.6-60.609,57.401-96.479
	c8.52,1.316,17.06,2.941,25.527,4.852c-32.064,52.021-44.711,114.31-35.655,174.618C70.666,354.408,63.224,345.743,56.694,336.287z
	 M285.344,378.146c-27.169,18.765-58.788,28.798-91.611,29.109c-5.933-6.065-11.371-12.65-16.18-19.617
	c-37.329-54.052-34.6-126.191,6.167-177.126c58.732,26.055,109.769,67.003,148.074,118.804
	C319.881,348.659,304.273,365.074,285.344,378.146z M338.721,316.895c-38.402-50.313-88.567-90.373-146.022-116.595
	c6.865-7.119,14.46-13.581,22.678-19.262c10.37-7.167,21.574-12.955,33.312-17.255l30.973,6.209
	c4.213,0.845,8.527,1.313,12.824,1.392c0.325,0.006,0.648,0.009,0.974,0.009c14.124,0,27.782-5.623,38.064-15.285
	c0.028,0.046,0.058,0.092,0.086,0.138C362.018,205.166,364.476,265.841,338.721,316.895z"/>
</svg>